<?xml version="1.0" encoding="utf-8"?>
<!-- Generator: Adobe Illustrator 23.0.3, SVG Export Plug-In . SVG Version: 6.00 Build 0)  -->
<svg version="1.1" xmlns="http://www.w3.org/2000/svg" xmlns:xlink="http://www.w3.org/1999/xlink" x="0px" y="0px"
	 viewBox="0 0 600 600" style="enable-background:new 0 0 600 600;" xml:space="preserve">
<style type="text/css">
	.st0{fill:#202124;}
	.st1{fill:#FFFFFF;stroke:#202124;stroke-width:0.75;stroke-miterlimit:10;}
	.st2{fill:#B1CEFC;}
	.st3{fill:#D8D8D8;}
	.st4{fill:#EB506E;}
	.st5{fill:#FFFFFF;}
	.st6{fill:#5185EC;}
	.st7{fill:none;}
	.st8{fill:#F7CD5B;}
	.st9{fill:#040844;}
	.st10{fill:#F4F4F4;}
</style>
<g id="details">
	<g id="background">
		<g>
			<g>
				<path class="st0" d="M319,414.2c76.1,0,152.2,0,228.4,0c0.5,0,0.5-0.8,0-0.8c-76.1,0-152.2,0-228.4,0
					C318.5,413.4,318.5,414.2,319,414.2L319,414.2z"/>
			</g>
		</g>
	</g>
	<g id="plant">
		<polygon class="st0" points="508.7,442.7 478.2,441.9 468,386.1 520.4,388.7 		"/>
		<ellipse class="st1" cx="494.2" cy="387.6" rx="26.2" ry="10.1"/>
		<g>
			<g>
				<path class="st2" d="M504.6,281.7c4,19.7-7.3,37.5-12.3,55.8c-2.1,7.7-3,15.6-1.7,23.5c1.5,9.6,5.2,19,2.2,28.7
					c-0.6,1.8,2.3,2.6,2.9,0.8c2.7-8.4,0.6-16.6-1.2-25c-2.2-10.7-1.4-20.4,1.8-30.8c5.5-17.7,15.1-34.8,11.3-53.8
					C507.1,279.1,504.2,279.9,504.6,281.7L504.6,281.7z"/>
			</g>
		</g>
		<g>
			<g>
				<path class="st2" d="M475.6,283.9c5.9,11.6-0.7,26,0.8,38.3c0.6,5.1,2.2,9.8,4.9,14.2c3.2,5.3,7.3,9.9,8.8,16
					c0.5,1.9,3.4,1.1,2.9-0.8c-1.4-5.3-4.4-9.6-7.4-14.1c-4.3-6.4-6.5-12.8-6.6-20.6c-0.1-11.5,4.6-23.7-0.9-34.6
					C477.3,280.7,474.8,282.2,475.6,283.9L475.6,283.9z"/>
			</g>
		</g>
		<g>
			<g>
				<path class="st2" d="M496,333.7c12.4-14.8,31.2-27.9,31-49.3c0-1.9-3-1.9-3,0c0.2,20.4-18.3,33-30.1,47.1
					C492.6,333,494.7,335.2,496,333.7L496,333.7z"/>
			</g>
		</g>
		<path class="st2" d="M461.4,292.7c-0.6,2.5-1.9,9,0.9,16.3c3.9,10.3,12.8,14.5,14.7,15.3c-0.1-3.7-0.8-10.6-4.6-18
			C468.8,299.4,464.2,295,461.4,292.7z"/>
		<path class="st2" d="M476.9,286.7c-0.6-2.3-1-5.2-0.9-8.4c0.7-11.9,9.1-19.7,11.6-21.8c0.6,2.3,1,5.2,0.8,8.3
			C487.8,276.6,479.5,284.4,476.9,286.7z"/>
		<path class="st2" d="M492,360.6c0.7-3,2.5-8.5,7.1-13.8c5.8-6.7,12.6-9.3,15.6-10.2c-0.9,3.1-3,8.9-8.1,14.4
			C501.1,356.9,495.1,359.5,492,360.6z"/>
		<path class="st2" d="M503.8,309c-2-2.4-4.9-6.5-6.8-12.2c-2.7-8.2-1.7-15.3-1-18.8c1.6,2.5,3.3,5.6,4.6,9.3
			C503.9,296,504.1,303.9,503.8,309z"/>
		<path class="st2" d="M483.4,338.8c-1-2.8-3.3-10.9,0-19.9c1.5-4.2,3.8-7.2,5.5-9.2c0.6,3.2,1.1,7.8,0.3,13.4
			C488.1,330.3,485.3,335.7,483.4,338.8z"/>
		<path class="st2" d="M506.3,287.6c-0.7-2.4-1.5-6-1.5-10.4c0-6.3,1.7-10.9,2.2-12.2c2-5.3,5-9,7-11.1c0.4,2,0.9,4.9,1.1,8.4
			c0.2,4.5,0.4,10.9-2.9,17.5C511.1,281.8,509.4,284.7,506.3,287.6z"/>
	</g>
	<g id="stairs">
		<path class="st3" d="M257.7,324.8c0,0-290.2-114-292.6-114.8v15.9l126.8,46.8l-3.8,233.4h10.5l3.8-229.5l94.8,35L193.3,513h10.5
			l3.8-197.7l50.1,18.5V324.8z"/>
		<g>
			<g>
				<path class="st0" d="M-80.4,434c1.9,0,1.9-3,0-3C-82.4,431-82.4,434-80.4,434L-80.4,434z"/>
			</g>
		</g>
		<g>
			<g>
				<path class="st0" d="M-2.9,525.9c72.5,16.3,145.5,30.6,218.9,42.8c20.8,3.5,41.6,6.7,62.4,9.9c0.5,0.1,0.7-0.7,0.2-0.7
					c-73.5-11-146.7-24.1-219.5-39.3c-20.6-4.3-41.2-8.8-61.7-13.4C-3.1,525.1-3.3,525.8-2.9,525.9L-2.9,525.9z"/>
			</g>
		</g>
		<g>
			<g>
				<path class="st0" d="M141.4,513.9c73.3,13,146.6,26.1,219.9,39.1c0.5,0.1,0.7-0.6,0.2-0.7c-73.3-13-146.6-26.1-219.9-39.1
					C141.1,513.1,140.9,513.8,141.4,513.9L141.4,513.9z"/>
			</g>
		</g>
		<g>
			<g>
				<path class="st0" d="M264.9,508.8c62.1,10,124.2,19.4,186.5,28c0.5,0.1,0.7-0.7,0.2-0.7c-62.3-8.7-124.4-18-186.5-28
					C264.6,508,264.4,508.7,264.9,508.8L264.9,508.8z"/>
			</g>
		</g>
	</g>
</g>
<g id="character">
	<g id="leg_right">
		<path class="st4" d="M229.5,520.3c-5.7,3.1-13.5,7.8-22,14.8c-6.5,5.3-15.6,12.8-14.5,14.8c1,1.9,10.9-0.1,51.9-18.3
			c-0.9-4.4-1.8-8.7-2.7-13.1C237.9,519.1,233.7,519.7,229.5,520.3z"/>
		<g>
			<g>
				<path class="st5" d="M221.9,525.1c1.7,0.2,3.2,0.9,4.6,1.8c0.4,0.3,0.8-0.4,0.4-0.6c-1.4-1-3.1-1.7-4.8-1.9
					C221.6,524.3,221.4,525,221.9,525.1L221.9,525.1z"/>
			</g>
		</g>
		<g>
			<g>
				<path class="st5" d="M218.2,527.8c1.8-0.1,3.5,0.6,4.9,1.8c0.3,0.3,0.9-0.2,0.5-0.5c-1.5-1.4-3.4-2.1-5.4-2.1
					C217.7,527,217.7,527.8,218.2,527.8L218.2,527.8z"/>
			</g>
		</g>
		<g>
			<g>
				<path class="st5" d="M212.1,531.2c1.7,0,3.3,0.6,4.7,1.6c0.4,0.3,0.8-0.4,0.4-0.6c-1.5-1.1-3.2-1.7-5.1-1.7
					C211.6,530.5,211.6,531.2,212.1,531.2L212.1,531.2z"/>
			</g>
		</g>
		<g>
			<g>
				<path class="st5" d="M242.8,530c-8.3,3.7-16.5,7.4-24.8,11.1c-0.4,0.2-0.1,0.8,0.4,0.6c8.3-3.7,16.5-7.4,24.8-11.1
					C243.7,530.4,243.3,529.8,242.8,530L242.8,530z"/>
			</g>
		</g>
		<path class="st6" d="M289.9,294.9c-14.7,22.2-29.6,47-43.9,74.3c-7.7,14.7-14.7,29.1-21.1,43.1c-0.2,4.6-0.4,10.7-0.5,17.8
			c-0.3,19.1,0.4,33.7,0.6,38.1c0.7,14,2.2,32,5.3,53.1c0.8,0.6,2.1,1.4,3.8,1.6c3.1,0.4,6.2-1.4,8.2-4.4c0.8-8.6,1.7-17.2,2.8-26.1
			c3.2-27,7.5-52.6,12.5-76.7c3.6-3.8,9.6-10.1,17-17.9c19.1-20.2,21.6-23,32.4-34.3c9-9.3,20.9-21.6,20.9-21.6l0,0
			c-5.4,11.9,17.5-25.1,12.4-37.1C337.5,298.6,327,292.4,289.9,294.9z"/>
		<g>
			<path class="st7" d="M287.4,298.5c-21.2,33-40.4,67.2-57.7,102.4"/>
		</g>
		<g>
			<path class="st7" d="M330.5,339.2c-24.7,25.1-48.9,50.7-72.7,76.6"/>
		</g>
		<g>
			<path class="st7" d="M257.7,415.7c-7,34-12.2,68.3-15.6,102.9"/>
		</g>
		<g>
			<path class="st7" d="M224.8,412.3c-1.6,36-0.1,72.2,4.7,108"/>
		</g>
		<g>
			<g>
				<path class="st0" d="M229.9,521.6c3.2,3.1,7.5,1.3,10.9-0.4c0.4-0.2,0.1-0.9-0.4-0.6c-3.1,1.6-7.1,3.3-10,0.5
					C230.1,520.7,229.6,521.3,229.9,521.6L229.9,521.6z"/>
			</g>
		</g>
	</g>
	<g id="leg_left">
		<path class="st4" d="M378.4,495.2c-1.4,3.6-3.4,8.7-5.4,15c-3.7,11.5-7.2,22.5-5.2,23.7c1.6,0.9,7.5-4.1,26.5-30.7
			c-1.1-3.7-2.3-7.4-3.4-11.1C386.8,493.1,382.6,494.2,378.4,495.2z"/>
		<g>
			<g>
				<path class="st5" d="M375.8,502.5c1.5-1,3.4-1,4.9-0.1c0.4,0.2,0.8-0.4,0.4-0.6c-1.8-1.1-3.9-1-5.7,0.1
					C375.1,502.1,375.4,502.8,375.8,502.5L375.8,502.5z"/>
			</g>
		</g>
		<g>
			<g>
				<path class="st5" d="M374.2,507.1c1.7-0.8,3.7-0.5,5.1,0.8c0.4,0.3,0.9-0.2,0.5-0.5c-1.7-1.5-4-1.8-6-0.9
					C373.4,506.6,373.7,507.3,374.2,507.1L374.2,507.1z"/>
			</g>
		</g>
		<g>
			<g>
				<path class="st5" d="M372.3,512.5c1.8-1.1,3.9-1,5.6,0.3c0.4,0.3,0.8-0.4,0.4-0.6c-1.9-1.4-4.4-1.5-6.4-0.3
					C371.5,512.1,371.9,512.8,372.3,512.5L372.3,512.5z"/>
			</g>
		</g>
		<g>
			<g>
				<path class="st5" d="M392.5,502.2c-3.6,4.6-7.1,9.3-10.4,14.1c-0.3,0.4,0.4,0.8,0.6,0.4c3.3-4.7,6.7-9.4,10.3-13.9
					C393.3,502.3,392.8,501.8,392.5,502.2L392.5,502.2z"/>
			</g>
		</g>
		<path class="st6" d="M302,308.3c-0.5,2.2-0.4,7.9-0.1,11.3c0.4,5.6,1.3,9.8,1.7,11.6c4.1,18.3,11.2,42,11.2,42
			c8,26.3,6,23.7,10.2,34.9c5.1,13.6,10.6,24.2,14.4,30.9c5.7,10.1,10.6,16.9,17.9,27.1c5.5,7.7,13.1,17.7,22.6,29.2
			c1.1,0.1,2.4,0.2,4,0c3.4-0.5,5.8-2.2,6.9-3.2c-7.4-23.5-14.9-47-22.3-70.5c-4.9-26.9-9.3-55-13.1-84.3c-1.8-13.9-3.3-27.6-4.7-41
			C324.5,295.7,303.9,300.2,302,308.3z"/>
		<g>
			<path class="st7" d="M352,307.5c4.1,37.5,9.6,74.8,16.5,111.8"/>
		</g>
		<g>
			<path class="st7" d="M368.6,421.6c7.9,23.3,15.4,46.8,22.3,70.5"/>
		</g>
		<g>
			<g>
				<path class="st5" d="M302.7,329.3c4.3,15.9,8.5,31.8,12.8,47.6c4,15,8,30.1,14.4,44.3c12,26.8,30.5,50,48.7,72.9
					c0.3,0.4,0.8-0.2,0.5-0.5c-18.1-22.8-36.5-46-48.6-72.7c-6.5-14.5-10.5-29.8-14.6-45c-4.2-15.6-8.3-31.1-12.5-46.7
					C303.3,328.7,302.6,328.9,302.7,329.3L302.7,329.3z"/>
			</g>
		</g>
		<g>
			<path class="st7" d="M380,495.3c2,0.1,4,0.1,5.9-0.3c1.9-0.5,3.8-1.6,4.7-3.3"/>
		</g>
	</g>
	<g id="hand_right">
		<path class="st8" d="M148.4,238.1c-1-0.5-2.4-1.3-4.2-2.3c-5.8-3.4-6.6-4.8-10.8-6.9c-2.7-1.4-5.5-2.7-9.3-2.7
			c-2,0-5.1,0.1-6.8,2.3c-1.2,1.6-1.7,4.1-0.7,5.7c0.8,1.3,2.1,1.1,4.5,2.8c1.4,1,2,1.9,2.7,2.6c2.3,2.4,5.3,3.1,10.4,4.4
			c2.8,0.7,7,1.9,12.6,3.5C147.3,244.4,147.8,241.2,148.4,238.1z"/>
		<path class="st9" d="M270,167.9c-1.5,0.2-3.2,1.8-5.6,4.1c-6,5.8-8.4,12.3-8.9,13.5c-2.5,6.6-10.7,20.9-30.6,50.3
			c-9.4,0.6-19.1,1.1-29.3,1.2c-16.2,0.3-31.5-0.1-45.9-0.9c-0.8,1-1.9,2.6-2.6,4.8c-1.1,3.4-0.7,6.3-0.4,7.7
			c7.5,2.6,15.5,5,23.9,7.2c19.4,5.1,37.4,8.1,53.7,9.9c2.3,0,5.5-0.2,9.2-0.9c2.2-0.4,6.8-1.5,14.1-5.1c2.8-1.4,6.7-3.5,18.8-12.2
			c4.8-3.5,8.9-6.4,11.9-8.7c5.5-4.3,10.9-8.6,16.4-12.9C281.9,178.6,274.5,167.3,270,167.9z"/>
		<g>
			<path class="st7" d="M269.1,168.4c-5.8,2.9-9.2,9.1-12.4,14.8c-9.6,17.4-19.8,34.5-30.8,51.1"/>
		</g>
		<g>
			<path class="st7" d="M150.4,235.7c24.8,1.7,49.7,1.7,74.4,0"/>
		</g>
		<g>
			<path class="st7" d="M149.8,236c-2.6,3.1-3.8,7.5-3,11.5"/>
		</g>
		<g>
			<path class="st7" d="M146.8,248.6c21.5,7.8,44.1,11.8,66.6,15.7c3.7,0.6,7.3,1.3,11.1,1.4c8.1,0.2,16.1-2.3,23.3-6
				s13.8-8.5,20.3-13.3c5.8-4.3,11.7-8.6,17.5-12.9"/>
		</g>
		<g>
			<path class="st7" d="M146.8,237.9c-5.2-4.3-10.8-7.9-16.9-10.7c-1.8-0.9-4-1.7-5.9-1"/>
		</g>
		<g>
			<g>
				<path class="st0" d="M133.5,232.7c-2.1-2.1-5.8-2-7.7,0.4c-0.1,0.2-0.2,0.4,0,0.5c0.7,0.6,1.4,0.8,2.2,1.1
					c1.8,0.5,2.8,1.3,3.8,2.9c1,1.8,2,3.6,4.2,4c0.5,0.1,0.7-0.6,0.2-0.7c-3.4-0.6-3.5-5.2-6.6-6.5c-0.5-0.2-1.1-0.3-1.6-0.5
					c-1.3-0.4-1.7-0.7-0.3-1.5c1.7-1,3.9-0.6,5.3,0.8C133.3,233.5,133.8,233,133.5,232.7L133.5,232.7z"/>
			</g>
		</g>
		<g>
			<g>
				<path class="st0" d="M119.3,228.6c2.2,0,4.3,0.5,6.2,1.6c0.4,0.2,0.8-0.4,0.4-0.6c-2-1.2-4.3-1.8-6.6-1.7
					C118.8,227.9,118.8,228.6,119.3,228.6L119.3,228.6z"/>
			</g>
		</g>
		<g>
			<g>
				<path class="st0" d="M117.3,232.2c2.3-0.3,4.4,0.1,6.5,1.1c0.4,0.2,0.8-0.4,0.4-0.6c-2.2-1.1-4.5-1.5-6.9-1.2
					C116.9,231.5,116.9,232.2,117.3,232.2L117.3,232.2z"/>
			</g>
		</g>
		<g>
			<g>
				<path class="st0" d="M118.3,235c2.5-0.1,4.8,0.9,6.4,2.9c0.3,0.4,0.8-0.2,0.5-0.5c-1.7-2.1-4.3-3.2-7-3.1
					C117.9,234.3,117.9,235.1,118.3,235L118.3,235z"/>
			</g>
		</g>
		<g>
			<path class="st7" d="M122.2,238.2c1.2,1.3,2.5,2.4,3.9,3.3c2,1.1,4.2,1.7,6.4,2.2c3.9,1,7.9,1.9,11.8,2.9"/>
		</g>
	</g>
	<g id="torso">
		<path class="st9" d="M270,167.9c-2.1,3.5-4.5,8.1-6.4,13.8c-2.4,7.3-3.1,13.7-3.3,18.5c2.9,9.9,5.9,20,8.7,30.1
			c6.5,23.1,12.6,45.8,18.3,68.2c2.4,2.3,6.1,5.6,11.4,8.3c10.8,5.5,21,5,28.1,4.6c5.7-0.3,14.6-1.4,24.8-5.5
			c2.7-12.7,4.8-23.8,6.3-32.9c4.6-27.4,7.2-41.4,7.4-59.8c0.1-9.5-0.3-20.7-2-33.4c-3.5-1.9-8.4-4.3-14.4-6.6
			c-7.7-3-21-7.3-38.2-8.6C295,163.3,281.1,165.2,270,167.9z"/>
		<g>
			<g>
				<path class="st5" d="M260,200.3c9.1,30.7,17.6,61.7,25.4,92.8c0.1,0.5,0.8,0.3,0.7-0.2c-7.8-31.1-16.3-62-25.4-92.8
					C260.5,199.6,259.8,199.8,260,200.3L260,200.3z"/>
			</g>
		</g>
		<g>
			<path class="st7" d="M287.2,298.5c4.4,4.9,10.3,8.2,16.6,10.2c6.3,2,12.9,2.6,19.4,2.7c9.8,0.1,19.8-1.1,28.5-5.6"/>
		</g>
		<g>
			<path class="st7" d="M270,167.9c31.2-7.7,65.2-3.3,93.4,12"/>
		</g>
		<g>
			<path class="st7" d="M365.6,184.5c1.8,40.7-5.6,81.2-14.1,121"/>
		</g>
		<g>
			<g>
				<path class="st2" d="M270.5,201.3c20.7,3.3,41.5,5.8,62.4,7.5c1,0.1,1-1.4,0-1.5c-20.8-1.7-41.4-4.2-62-7.5
					C270,199.7,269.6,201.1,270.5,201.3L270.5,201.3z"/>
			</g>
		</g>
		<g>
			<g>
				<path class="st2" d="M281.6,220.3c12.9,2,25.8,3.8,38.7,5.4c1,0.1,0.9-1.4,0-1.5c-12.8-1.6-25.6-3.4-38.3-5.4
					C281.1,218.8,280.7,220.2,281.6,220.3L281.6,220.3z"/>
			</g>
		</g>
		<g>
			<g>
				<path class="st2" d="M283,245.4c16.2,4.2,32.9,6,49.6,5.5c1,0,1-1.5,0-1.5c-16.6,0.5-33.1-1.3-49.2-5.4
					C282.5,243.7,282.1,245.1,283,245.4L283,245.4z"/>
			</g>
		</g>
		<g>
			<g>
				<path class="st2" d="M281.5,256.4c18,6.3,36.9,9.3,56,8.8c1,0,1-1.5,0-1.5c-19,0.5-37.7-2.4-55.6-8.7
					C281,254.6,280.6,256.1,281.5,256.4L281.5,256.4z"/>
			</g>
		</g>
	</g>
	<g id="bag">
		<polygon class="st4" points="428.7,326.5 375.2,350 380.6,427.3 393.2,433.7 444.1,381.8 446.4,328.6 		"/>
		<path class="st10" d="M392.2,341.5c0.3,0.3,0.7,0.8,1.4,1.1c1.4,0.8,2.9,0.6,3.4,0.5c0.3-1.3,0.7-3.1,1.4-5.1
			c1.3-3.7,2.2-6.4,4.6-8.9c1-1,4.2-4.5,8.7-4.5c1.1,0,3.3,0,4.9,1.7c1.7,1.8,1.4,4.2,1.4,4.7c0.4,0.3,1.4,1,2.8,1
			c2.6-0.1,3.9-2.5,4-2.6c-0.2-1-0.7-2.5-1.7-4c-2.4-3.4-6.1-4.2-7.4-4.5c-3.3-0.7-5.9,0-7.4,0.4c-5.1,1.4-8.2,4.7-9.6,6.2
			C393.9,332.9,392.6,338.8,392.2,341.5z"/>
		<g>
			<path class="st7" d="M392.4,341.9c0.2-8.8,6.3-17.2,14.6-20.1c3.4-1.2,7.1-1.4,10.5-0.3c3.4,1.1,6.3,3.8,7.2,7.3"/>
		</g>
		<g>
			<path class="st7" d="M392.2,341.5c1.1,1.4,3,2,4.8,1.6"/>
		</g>
		<g>
			<path class="st7" d="M397.2,343c0.8-3.8,1.8-7.7,3.8-11.1c2-3.4,5.2-6.3,9-7.1c1.9-0.4,3.9-0.2,5.5,0.7c1.6,0.9,2.8,2.8,2.7,4.7"
				/>
		</g>
		<g>
			<path class="st7" d="M417.9,331.1c2,1.8,5.8,0.9,6.8-1.6"/>
		</g>
		<g>
			<g>
				<path class="st5" d="M393.5,432.9c0-24.6,0-49.3,0-73.9c0-0.5-0.8-0.5-0.8,0c0,24.6,0,49.3,0,73.9
					C392.7,433.4,393.5,433.4,393.5,432.9L393.5,432.9z"/>
			</g>
		</g>
		<g>
			<g>
				<path class="st5" d="M376.4,350.8c4.8,1.1,9.4,2.7,13.8,4.9c0.4,0.2,0.8-0.4,0.4-0.6c-4.5-2.2-9.1-3.9-14-5
					C376.2,350,376,350.7,376.4,350.8L376.4,350.8z"/>
			</g>
		</g>
		<g>
			<g>
				<path class="st5" d="M393.5,359.3c9.7,3.6,19.5,6.9,29.5,10c0.5,0.1,0.7-0.6,0.2-0.7c-9.9-3.1-19.7-6.4-29.5-10
					C393.3,358.4,393.1,359.1,393.5,359.3L393.5,359.3z"/>
			</g>
		</g>
		<g>
			<g>
				<path class="st5" d="M445.8,329c-5,12-10.7,23.6-17.1,34.9c-0.2,0.4,0.4,0.8,0.6,0.4c6.4-11.3,12.1-23,17.2-35
					C446.7,328.7,446,328.5,445.8,329L445.8,329z"/>
			</g>
		</g>
	</g>
	<g id="hand_left">
		<path class="st8" d="M401.9,313.3c-0.5,0.6-1.3,1.4-2.1,2.4c-1.5,1.7-1.9,2.4-2.1,2.7c-0.9,1.5-1.4,2.2-1.4,3.2
			c0,0.2,0,1.9,1.3,3.1c1.3,1.1,3.3,1.2,5,0.3c0.5,0.8,1.1,2.1,0.9,3.6c-0.2,2.1-1.7,3.4-1.1,4.2c0.3,0.4,0.9,0.4,1.7,0.5
			c1.7,0.1,3-0.5,3.8-0.8c1.7-0.8,2.9-1.5,4.7-2.7c2.1-1.4,3.6-2.4,4.1-2.7c0.1-1,0.1-2.3-0.2-3.9c-0.1-0.7-0.6-2.8-3.2-7
			c-2.1-3.4-3.2-5.1-4.6-5.5C405.5,309.9,402.5,312.8,401.9,313.3z"/>
		<path class="st9" d="M363.4,179.8c-1.1,2-2.1,4.1-3.1,6.3c-6,13.6-7.1,26.8-6.7,36.9c7.1,8.6,14.3,17.7,21.6,27.3
			c5.1,6.7,9.9,13.4,14.5,19.9c1.6,4.6,3.2,9.3,4.7,14.2c3.1,10.1,5.5,19.8,7.5,28.9c0.3,0.1,1.8,0.7,3.5-0.1c2.1-1,2.5-3.2,2.6-3.4
			c-0.6-18-1.2-36-1.8-54c-1-3-2.4-7.2-4.3-12.1c-2.3-6.3-4.8-13.1-8.2-20.6c-2.2-4.8-5.4-11.9-10.4-19.6
			C379.2,197.2,372.9,188.7,363.4,179.8z"/>
		<g>
			<path class="st7" d="M363.3,179.9c11.1,9.5,19.5,21.6,26,34.3s11.4,26.2,16.2,39.6"/>
		</g>
		<g>
			<path class="st7" d="M353.6,223c12.6,15.3,24.7,31.1,36.1,47.3"/>
		</g>
		<g>
			<g>
				<path class="st0" d="M389.9,271.6c4.5,13.6,8.4,27.4,11.7,41.3c0.1,0.5,0.8,0.3,0.7-0.2c-3.4-13.9-7.3-27.7-11.7-41.3
					C390.5,271,389.8,271.2,389.9,271.6L389.9,271.6z"/>
			</g>
		</g>
		<g>
			<g>
				<path class="st0" d="M405.5,257.1c1.2,17.6,1.9,35.1,2,52.7c0,0.5,0.8,0.5,0.8,0c-0.1-17.6-0.8-35.2-2-52.7
					C406.2,256.6,405.5,256.6,405.5,257.1L405.5,257.1z"/>
			</g>
		</g>
		<g>
			<g>
				<path class="st0" d="M402.6,313.8c2.5,0.5,5.1-1,5.9-3.4c0.2-0.5-0.6-0.7-0.7-0.2c-0.7,2-2.9,3.3-5,2.9
					C402.3,313,402.1,313.7,402.6,313.8L402.6,313.8z"/>
			</g>
		</g>
		<g>
			<path class="st7" d="M401.9,313.3c-1.4,1.7-2.8,3.4-4.3,5.2c-0.9,1.1-1.8,2.4-1.3,3.7c0.4,0.9,1.4,1.6,1.2,2.6"/>
		</g>
		<g>
			<path class="st7" d="M408.5,310.7c2.1,2.3,4.2,4.7,5.8,7.4c1.6,2.7,2.6,5.9,2.2,9"/>
		</g>
		<g>
			<g>
				<path class="st0" d="M401.5,324c1.2,2,1.7,4.2,1.6,6.6c0,0.5,0.7,0.5,0.8,0c0.2-2.5-0.4-4.8-1.7-7
					C401.9,323.2,401.2,323.6,401.5,324L401.5,324z"/>
			</g>
		</g>
		<g>
			<g>
				<path class="st0" d="M403.1,334c3.2-0.9,5.4-4,5.1-7.3c0-0.5-0.8-0.5-0.8,0c0.2,3-1.7,5.7-4.6,6.6
					C402.5,333.5,402.7,334.2,403.1,334L403.1,334z"/>
			</g>
		</g>
		<g>
			<g>
				<path class="st0" d="M407.3,333.2c2.5-1.3,3.9-3.9,3.8-6.7c0-0.5-0.8-0.5-0.8,0c0.1,2.5-1.2,4.9-3.4,6.1
					C406.5,332.8,406.9,333.4,407.3,333.2L407.3,333.2z"/>
			</g>
		</g>
		<g>
			<g>
				<path class="st0" d="M411.1,330.3c0.8,0.9,1.8-0.5,2.2-1.1c0.9-1.4,1.3-3,1.2-4.6c0-0.5-0.8-0.5-0.8,0c0,0.9-0.1,1.8-0.4,2.7
					c-0.1,0.3-1.4,2.9-1.8,2.5C411.3,329.4,410.8,329.9,411.1,330.3L411.1,330.3z"/>
			</g>
		</g>
	</g>
	<g id="head">
		<path class="st6" d="M324.9,138.5c-0.2,7.4-5.9,13.8-12.1,15.9c-12.1,4.1-26.1-8-26.8-17.7c0,0,0-0.1,0-0.1
			c0-0.6-0.5-7.7,2.4-10.1c2.6-2.1,5.7,1.6,10.3,0c4.4-1.5,4.1-5.5,7.4-6.6C312,118,325.2,126.9,324.9,138.5z"/>
		<path class="st8" d="M290.4,142.2c-0.9,0.9-1.4,1.7-2.3,3.2c-0.7,1.2-1.5,2.7-2,4.8c-0.2,0.9-0.8,3.6,0.2,6.8
			c1.3,4.3,4.5,6.5,5.3,7.1c3.1,2.1,6.2,2.3,7.4,2.3c0.3,0.4,0.6,0.8,0.8,1.2c-0.4,0-1.6,0-2.7,0.8c-0.9,0.7-1.8,2-1.5,3.5
			c0.3,1.4,1.5,2.1,1.8,2.3c0.5,0.3,1.7,0.8,4.3,0.3c1.6-0.3,4.2-1.2,7.4-3.8c1.7-1.4,5-4.7,4.4-5.7c-0.2-0.2-0.9-0.9-6.4,1.4
			c-0.6-0.7-1.3-1.8-1.2-2.9c0.2-1.3,1.4-1.9,2.5-3.1c1-1,2.1-2.7,2.5-5.6c-1.6-0.2-3.4-0.8-4.6-2.1c-1.1-1.2-1.1-2.3-2.5-6.5
			c-1.4-4.2-2-4.9-2.6-5.3c-1.6-1.2-3.4-1.1-4.5-1.1C296.1,139.6,292.9,139.7,290.4,142.2z"/>
		<ellipse transform="matrix(0.4582 -0.8889 0.8889 0.4582 31.6643 344.5794)" class="st0" cx="298.5" cy="146.3" rx="1" ry="0.8"/>
		<g>
			<g>
				<path class="st0" d="M298.9,143.9c1.3-0.2,2.4,0.6,2.6,1.9c0.1,0.5,0.8,0.3,0.7-0.2c-0.3-1.7-1.9-2.7-3.5-2.4
					C298.2,143.2,298.4,144,298.9,143.9L298.9,143.9z"/>
			</g>
		</g>
		<g>
			<path class="st7" d="M290,142.6c-4.1,4.4-5.4,10.6-3.2,15.7c0.3,0.7,3.3,7.2,10.2,7.8c4.5,0.4,8.8-1.9,11.3-5.8"/>
		</g>
		<g>
			<path class="st7" d="M290.1,142.1c3.1-3,7.6-4.6,11.9-4c4.3,0.6,8.2,3.7,9.5,7.8c0.8,2.5,0.6,5.2,0.4,7.8"/>
		</g>
		<g>
			<g>
				<path class="st0" d="M295.7,142.9c-2.5,2.4-5.9,6.7-4.1,10.3c0.2,0.4,0.9,0.1,0.6-0.4c-1.5-3.1,1.8-7.4,4-9.4
					C296.6,143.1,296.1,142.6,295.7,142.9L295.7,142.9z"/>
			</g>
		</g>
		<g>
			<path class="st7" d="M290.4,142.2c1.5-1,3-2,4.7-2.5c1.7-0.5,3.7-0.5,5.2,0.4c2,1.2,2.9,3.7,3.4,6c0.5,2.3,0.9,4.8,2.5,6.5
				c1.1,1.3,2.9,2.1,4.6,2.1c0.4,0,1-0.2,0.9-0.6"/>
		</g>
		<g>
			<g>
				<path class="st0" d="M298.7,166.6c0.5,0.7,1,1.4,1.5,2.1c0.3,0.4,0.9,0,0.6-0.4c-0.5-0.7-1-1.4-1.5-2.1
					C299.1,165.8,298.4,166.2,298.7,166.6L298.7,166.6z"/>
			</g>
		</g>
		<g>
			<path class="st7" d="M297.8,167.9c-0.9,0.6-1.7,1.5-2,2.6c-0.3,1.1-0.2,2.3,0.6,3.1c0.6,0.6,1.4,0.8,2.2,0.9
				c2.3,0.4,4.7-0.2,6.8-1.3c2.1-1.1,3.9-2.7,5.4-4.4c1-1.2,2-2.4,2.6-3.9"/>
		</g>
		<path class="st6" d="M287.4,145.9c2.4,0.4,3.7-4.4,8.4-5.2c0.7-0.1,2.5-0.4,4.1,0.5c2,1.1,2.8,3.3,3.6,5.6c1,3,0.5,3.6,1.7,5.6
			c0.6,0.9,1.5,2.4,3.4,3.1c1.6,0.5,3,0.2,3.6,0c0.1-1.2,0.1-2.8-0.2-4.8c-0.4-2.1-0.9-5.4-3.5-8.1c-2.2-2.4-4.9-3.2-7.2-3.8
			c-6.1-1.7-15.2-1.7-16.6,1.9C284,142.5,285.7,145.6,287.4,145.9z"/>
		<path class="st4" d="M301,135.9c1,0.1,3,0.6,5,2.2c2.3,1.8,3.1,4.1,3.4,5c0.2-0.5,0.9-2.7-0.2-4.7C308,136,304.5,134.8,301,135.9z
			"/>
	</g>
</g>
</svg>
